P1
20 8
11100110000000011111
00111010001111111100
11111111111111111111
00000000000000000000
00000001111100000111
00000111110000011111
00000000001111111111
00001111000011110011
