P1
8 8
00011110
00011110
00011110
00011110
00011110
00111110
01111110
11111111
