P1
8 23
0101000001110010011000010110001101110100011010010111001101100101001000000110110101100001011010110110010101110011001000000111000001100101011100100110011001100101011000110111010000101110