P1
8 8
01111000
01111000
01111100
11111100
11111111
11111111
11111111
11111111
